<svg width="207" height="33" viewBox="0 0 207 33" fill="none" xmlns="http://www.w3.org/2000/svg">
<path fill-rule="evenodd" clip-rule="evenodd" d="M0 21.0716C0 30.4272 1.80246 32.9592 8.41144 32.9163C11.4155 32.8734 12.6601 32.2296 13.3467 31.1567C14.5484 32.1438 16.1362 32.4871 17.6812 32.4871H18.8399C19.827 32.4871 20.2562 32.015 20.2562 31.028V2.4462C20.2562 0.257477 19.312 0 16.78 0H14.6771C11.9305 0 11.2439 0.6008 11.2439 2.48911V9.99933C10.4714 9.65601 9.14105 9.31268 7.1669 9.31268C1.75955 9.31268 0 11.9734 0 21.0716ZM11.2439 15.1492V27.3372C11.2439 27.8951 11.0293 28.3243 10.3427 28.3243C9.57019 28.3243 9.35559 27.8951 9.35559 27.3372V15.1492C9.35559 14.3338 9.48438 13.8617 10.3427 13.8617C11.1152 13.8617 11.2439 14.3338 11.2439 15.1492Z" fill="black"/>
<path fill-rule="evenodd" clip-rule="evenodd" d="M21.9301 20.8569C21.9301 29.8692 23.2175 32.8733 32.2298 32.8733C38.4525 32.8733 42.3149 31.4142 42.3149 26.0068C42.3149 25.3202 42.0574 24.7622 40.6412 24.7622H35.2768C34.1609 24.7622 33.2169 24.891 33.2169 26.5647V27.1655C33.2169 27.8522 33.131 28.3242 32.3156 28.3242C31.4573 28.3242 31.3286 27.8951 31.3286 27.2513V22.7023H40.0404C41.5425 22.7023 42.6154 21.5435 42.6154 19.9128C42.6154 11.5442 40.77 9.31262 32.0581 9.31262C23.7754 9.31262 21.9301 12.3596 21.9301 20.8569ZM31.3286 19.3549V15.0204C31.3286 14.3337 31.4573 13.8617 32.2727 13.8617C33.0452 13.8617 33.2169 14.3337 33.2169 15.0204V19.3549H31.3286Z" fill="black"/>
<path d="M44.89 16.1791C43.8171 16.1791 43.3021 15.4066 43.3021 14.5912V11.3296C43.3021 10.4713 43.903 9.74176 44.5896 9.74176H45.3192L46.2633 6.39435C46.6495 5.02106 47.3362 4.59189 48.452 4.59189H51.5419C52.7435 4.59189 53.9023 5.06396 53.9023 7.08099V9.74176H54.6747C55.6189 9.74176 56.1339 9.99924 56.1339 11.3725V14.5912C56.1339 15.9645 55.4472 16.1791 54.6747 16.1791H53.9023V25.9209C53.9023 26.0497 53.9452 26.0926 54.074 26.0926H54.8893C55.6189 26.0926 56.1339 26.2643 56.1339 27.3372V30.4271C56.1339 31.8004 55.6189 32.487 53.8594 32.487H50.8553C45.8342 32.487 44.9329 30.2554 44.9329 25.7493V16.1791H44.89Z" fill="black"/>
<path fill-rule="evenodd" clip-rule="evenodd" d="M57.1422 20.8569C57.1422 29.8692 58.4296 32.8733 67.4419 32.8733C73.6646 32.8733 77.527 31.4142 77.527 26.0068C77.527 25.3202 77.2695 24.7622 75.8533 24.7622H70.4889C69.373 24.7622 68.429 24.891 68.429 26.5647V27.1655C68.429 27.8522 68.3431 28.3242 67.5277 28.3242C66.6694 28.3242 66.5406 27.8951 66.5406 27.2513V22.7023H75.2525C76.7546 22.7023 77.8275 21.5435 77.8275 19.9128C77.8275 11.5442 75.9821 9.31262 67.2702 9.31262C58.9875 9.31262 57.1422 12.3596 57.1422 20.8569ZM66.5406 19.3549V15.0204C66.5406 14.3337 66.6694 13.8617 67.4848 13.8617C68.2573 13.8617 68.429 14.3337 68.429 15.0204V19.3549H66.5406Z" fill="black"/>
<path d="M90.9167 32.53C93.7062 32.53 94.3929 32.1008 94.3929 30.0838V11.7159C94.3929 9.65598 93.3629 9.31262 92.0754 9.31262C90.23 9.31262 87.226 10.1709 86.1531 12.6171C85.2518 10.7289 83.8785 9.31262 81.5612 9.31262H81.5182C80.2736 9.31262 79.4153 9.48431 79.4153 10.7289V17.252C79.4153 18.3678 80.1449 19.0974 81.0461 19.0974C81.2855 19.0974 81.6751 18.9789 82.1199 18.8435C82.7116 18.6635 83.4009 18.4537 83.9644 18.4537C84.7798 18.4537 85.3806 18.7112 85.3806 19.827V30.0838C85.3806 32.1008 86.0673 32.53 88.8138 32.53H90.9167Z" fill="black"/>
<path d="M95.7663 30.0838C95.7663 32.1008 96.4529 32.53 99.2425 32.53H101.345C104.092 32.53 104.779 32.1008 104.779 30.0838V19.827C104.779 18.7112 105.379 18.4537 106.195 18.4537C106.758 18.4537 107.448 18.6635 108.039 18.8435C108.484 18.9789 108.874 19.0974 109.113 19.0974C110.014 19.0974 110.744 18.3678 110.744 17.252V10.7289C110.744 9.48431 109.885 9.31262 108.641 9.31262H108.598C106.281 9.31262 104.907 10.7289 104.006 12.6171C102.933 10.1709 99.9291 9.31262 98.0837 9.31262C96.7963 9.31262 95.7663 9.65598 95.7663 11.7159V30.0838Z" fill="black"/>
<path fill-rule="evenodd" clip-rule="evenodd" d="M122.202 32.8733C113.19 32.8733 111.902 29.8692 111.902 20.8569C111.902 12.3596 113.748 9.31262 122.03 9.31262C130.742 9.31262 132.588 11.5442 132.588 19.9128C132.588 21.5435 131.515 22.7023 130.013 22.7023H121.301V27.2513C121.301 27.8951 121.43 28.3242 122.288 28.3242C123.103 28.3242 123.189 27.8522 123.189 27.1655V26.5647C123.189 24.891 124.133 24.7622 125.249 24.7622H130.614C132.03 24.7622 132.287 25.3202 132.287 26.0068C132.287 31.4142 128.425 32.8733 122.202 32.8733ZM121.301 15.0204V19.3549H123.189V15.0204C123.189 14.3337 123.018 13.8617 122.245 13.8617C121.43 13.8617 121.301 14.3337 121.301 15.0204Z" fill="black"/>
<path d="M134.176 30.084C134.176 32.101 134.905 32.5302 137.695 32.5302H139.798C142.544 32.5302 143.231 32.101 143.231 30.084V15.2781C143.231 14.4198 143.403 14.0765 144.132 14.0765C144.905 14.0765 145.119 14.4198 145.119 15.2781V30.084C145.119 32.101 145.806 32.5302 148.595 32.5302H150.698C153.445 32.5302 154.131 32.101 154.131 30.084V15.3639C154.131 11.3299 152.415 9.35574 147.866 9.31284C144.948 9.26993 143.059 10.0853 141.986 11.0724C140.398 9.95657 138.21 9.31284 136.665 9.31284C135.12 9.31284 134.176 9.87076 134.176 11.7161V30.084Z" fill="black"/>
<path d="M156.706 16.1791C155.633 16.1791 155.118 15.4066 155.118 14.5912V11.3296C155.118 10.4713 155.719 9.74176 156.406 9.74176H157.135L158.08 6.39435C158.466 5.02106 159.153 4.59189 160.268 4.59189H163.358C164.56 4.59189 165.719 5.06396 165.719 7.08099V9.74176H166.491C167.435 9.74176 167.95 9.99924 167.95 11.3725V14.5912C167.95 15.9645 167.264 16.1791 166.491 16.1791H165.719V25.9209C165.719 26.0497 165.762 26.0926 165.89 26.0926H166.706C167.435 26.0926 167.95 26.2643 167.95 27.3372V30.4271C167.95 31.8004 167.435 32.487 165.676 32.487H162.672C157.651 32.487 156.749 30.2554 156.749 25.7493V16.1791H156.706Z" fill="black"/>
<path fill-rule="evenodd" clip-rule="evenodd" d="M168.959 20.8569C168.959 29.8692 170.246 32.8733 179.259 32.8733C185.481 32.8733 189.344 31.4142 189.344 26.0068C189.344 25.3202 189.086 24.7622 187.67 24.7622H182.306C181.19 24.7622 180.246 24.891 180.246 26.5647V27.1655C180.246 27.8522 180.16 28.3242 179.344 28.3242C178.486 28.3242 178.357 27.8951 178.357 27.2513V22.7023H187.069C188.571 22.7023 189.644 21.5435 189.644 19.9128C189.644 11.5442 187.799 9.31262 179.087 9.31262C170.804 9.31262 168.959 12.3596 168.959 20.8569ZM178.357 19.3549V15.0204C178.357 14.3337 178.486 13.8617 179.302 13.8617C180.074 13.8617 180.246 14.3337 180.246 15.0204V19.3549H178.357Z" fill="black"/>
<path d="M194.708 32.53C191.919 32.53 191.232 32.1008 191.232 30.0838V11.7159C191.232 9.65598 192.262 9.31262 193.55 9.31262C195.395 9.31262 198.399 10.1709 199.472 12.6171C200.373 10.7289 201.747 9.31262 204.064 9.31262H204.107C205.352 9.31262 206.21 9.48431 206.21 10.7289V17.252C206.21 18.3678 205.48 19.0974 204.579 19.0974C204.34 19.0974 203.95 18.9789 203.505 18.8435C202.914 18.6634 202.224 18.4537 201.661 18.4537C200.845 18.4537 200.245 18.7112 200.245 19.827V30.0838C200.245 32.1008 199.558 32.53 196.811 32.53H194.708Z" fill="black"/>
</svg>
