<svg width="15" height="15" viewBox="0 0 15 15" fill="none" xmlns="http://www.w3.org/2000/svg">
<path d="M7.98438 3.4021C5.98438 3.4021 4.39062 5.0271 4.39062 6.99585C4.39062 8.99585 5.98438 10.5896 7.98438 10.5896C9.95312 10.5896 11.5781 8.99585 11.5781 6.99585C11.5781 5.0271 9.95312 3.4021 7.98438 3.4021ZM7.98438 9.3396C6.70312 9.3396 5.64062 8.30835 5.64062 6.99585C5.64062 5.7146 6.67188 4.68335 7.98438 4.68335C9.26562 4.68335 10.2969 5.7146 10.2969 6.99585C10.2969 8.30835 9.26562 9.3396 7.98438 9.3396ZM12.5469 3.2771C12.5469 3.74585 12.1719 4.12085 11.7031 4.12085C11.2344 4.12085 10.8594 3.74585 10.8594 3.2771C10.8594 2.80835 11.2344 2.43335 11.7031 2.43335C12.1719 2.43335 12.5469 2.80835 12.5469 3.2771ZM14.9219 4.12085C14.8594 2.99585 14.6094 1.99585 13.7969 1.18335C12.9844 0.37085 11.9844 0.12085 10.8594 0.0583496C9.70312 -0.00415039 6.23438 -0.00415039 5.07812 0.0583496C3.95312 0.12085 2.98438 0.37085 2.14062 1.18335C1.32812 1.99585 1.07812 2.99585 1.01562 4.12085C0.953125 5.2771 0.953125 8.74585 1.01562 9.9021C1.07812 11.0271 1.32812 11.9958 2.14062 12.8396C2.98438 13.6521 3.95312 13.9021 5.07812 13.9646C6.23438 14.0271 9.70312 14.0271 10.8594 13.9646C11.9844 13.9021 12.9844 13.6521 13.7969 12.8396C14.6094 11.9958 14.8594 11.0271 14.9219 9.9021C14.9844 8.74585 14.9844 5.2771 14.9219 4.12085ZM13.4219 11.1208C13.2031 11.7458 12.7031 12.2146 12.1094 12.4646C11.1719 12.8396 8.98438 12.7458 7.98438 12.7458C6.95312 12.7458 4.76562 12.8396 3.85938 12.4646C3.23438 12.2146 2.76562 11.7458 2.51562 11.1208C2.14062 10.2146 2.23438 8.0271 2.23438 6.99585C2.23438 5.99585 2.14062 3.80835 2.51562 2.87085C2.76562 2.2771 3.23438 1.80835 3.85938 1.55835C4.76562 1.18335 6.95312 1.2771 7.98438 1.2771C8.98438 1.2771 11.1719 1.18335 12.1094 1.55835C12.7031 1.7771 13.1719 2.2771 13.4219 2.87085C13.7969 3.80835 13.7031 5.99585 13.7031 6.99585C13.7031 8.0271 13.7969 10.2146 13.4219 11.1208Z" fill="#CFDAE4"/>
</svg>
