<svg width="17" height="16" viewBox="0 0 17 16" fill="none" xmlns="http://www.w3.org/2000/svg">
<path d="M8.3125 0.261475C4.03125 0.261475 0.5625 3.76147 0.5625 8.01147C0.5625 12.2927 4.03125 15.7615 8.3125 15.7615C12.5625 15.7615 16.0625 12.2927 16.0625 8.01147C16.0625 3.76147 12.5625 0.261475 8.3125 0.261475ZM11.875 5.54272C11.7812 6.76147 11.2812 9.76147 11 11.1052C10.9062 11.699 10.6875 11.8865 10.4688 11.9177C10.0312 11.949 9.6875 11.6052 9.25 11.324C8.5625 10.8865 8.1875 10.6052 7.53125 10.1677C6.75 9.66772 7.25 9.38647 7.6875 8.94897C7.8125 8.82397 9.78125 7.01147 9.8125 6.85522C9.84375 6.82397 9.84375 6.76147 9.78125 6.69897C9.75 6.66772 9.6875 6.69897 9.625 6.69897C9.5625 6.69897 8.46875 7.41772 6.375 8.85522C6.0625 9.07397 5.78125 9.16772 5.53125 9.16772C5.25 9.16772 4.71875 9.01147 4.3125 8.88647C3.84375 8.73022 3.4375 8.63647 3.46875 8.38647C3.5 8.23022 3.6875 8.10522 4.0625 7.94897C6.3125 6.94897 7.8125 6.32397 8.5625 6.01147C10.7188 5.10522 11.1875 4.94897 11.4688 4.94897C11.5312 4.94897 11.6875 4.94897 11.7812 5.04272C11.8125 5.07397 11.875 5.16772 11.875 5.23022C11.9062 5.35522 11.9062 5.44897 11.875 5.54272Z" fill="#CFDAE4"/>
</svg>
