<svg width="144" height="104" viewBox="0 0 144 104" fill="none" xmlns="http://www.w3.org/2000/svg">
<path d="M72 0C19.6362 0 0 51.88 0 51.88C0 51.88 19.6362 103.76 72 103.76C124.363 103.76 144 51.88 144 51.88C144 51.88 124.363 0 72 0ZM72 12.9651C106.534 12.9651 124.001 40.65 129.656 51.8616C123.994 62.9953 106.396 90.7759 72 90.7759C37.4658 90.7759 19.9992 63.11 14.3436 51.8984C20.0118 40.7647 37.6032 12.9651 72 12.9651Z" fill="white"/>
<path d="M47.3418 67.7868H55.3698V75.7399H47.3418V67.7868ZM57.6636 67.7868H65.6922V75.7399H57.6636V67.7868ZM67.986 67.7868H76.014V75.7399H67.986V67.7868ZM67.986 38.2456H76.014V46.1987H67.986V38.2456ZM67.986 28.0201H76.014V35.9732H67.986V28.0201ZM78.3078 28.0201H86.3358V35.9732H78.3078V28.0201ZM57.6636 28.0201H65.6922V35.9732H57.6636V28.0201ZM78.3078 67.7868H86.3358V75.7399H78.3078V67.7868ZM88.6296 67.7868H96.6582V75.7399H88.6296V67.7868ZM78.3078 57.5606H86.3358V65.5144H78.3078V57.5606ZM88.6296 57.5606H96.6582V65.5144H88.6296V57.5606ZM88.6296 47.3352H96.6582V55.2882H88.6296V47.3352ZM47.3418 57.5606H55.3698V65.5144H47.3418V57.5606ZM47.3418 47.3352H55.3698V55.2882H47.3418V47.3352ZM57.6636 57.5606H65.6922V65.5144H57.6636V57.5606Z" fill="white"/>
</svg>
