<svg width="15" height="17" viewBox="0 0 15 17" fill="none" xmlns="http://www.w3.org/2000/svg">
<path d="M14.8984 6.5625C13.4922 6.59375 12.1797 6.15625 11.0547 5.34375V10.9375C11.0547 14.8438 6.80469 17.2812 3.42969 15.3438C0.0546875 13.375 0.0546875 8.5 3.42969 6.53125C4.39844 5.96875 5.55469 5.75 6.67969 5.90625V8.71875C4.96094 8.15625 3.30469 9.6875 3.67969 11.4375C4.08594 13.1875 6.21094 13.875 7.55469 12.6562C8.02344 12.2188 8.30469 11.5938 8.30469 10.9375V0H11.0547C11.0547 0.25 11.0547 0.46875 11.1172 0.71875C11.3047 1.75 11.8984 2.65625 12.8047 3.21875C13.3984 3.625 14.1484 3.84375 14.8984 3.84375V6.5625Z" fill="#CFDAE4"/>
</svg>
