<svg aria-hidden="true" style="position: absolute; width: 0; height: 0; overflow: hidden;" version="1.1" xmlns="http://www.w3.org/2000/svg" xmlns:xlink="http://www.w3.org/1999/xlink">
<defs>
<symbol id="icon-logo" viewBox="0 0 49 32">
<path d="M24.206 19.418c1.234 0 1.889-0.515 1.933-1.39l0.223-7.125c0.015-0.103 0.015-0.227 0.015-0.309 0-0.947-0.833-1.513-2.156-1.513-1.338 0-2.186 0.567-2.186 1.513 0 0.039 0.003 0.087 0.007 0.137 0.004 0.057 0.008 0.117 0.008 0.172l0.238 7.125c0.029 0.875 0.684 1.39 1.918 1.39zM26.791 22.874c0 1.395-1.142 2.49-2.585 2.49s-2.585-1.094-2.585-2.49 1.142-2.489 2.585-2.489c1.443 0 2.585 1.094 2.585 2.489z"></path>
<path d="M24.205 0c-1.388 0-2.772 0.669-3.577 2.009l-2.462 4.113c-3.869 0.969-7.615 2.793-11.169 5.247-1.899 1.321-3.56 2.662-5.12 4.11l0.029-0.027c-0.489 0.453-0.943 0.896-1.385 1.349l-0.1 0.103c-0.105 0.107-0.199 0.204-0.282 0.292-0.039 0.042-0.071 0.078-0.097 0.107l-0.043 0.048 2.465 2.206 0.009-0.011 0.001-0.001c0.145-0.158 0.278-0.299 0.412-0.437l-0.006 0.006c0.362-0.371 0.787-0.787 1.273-1.238 1.42-1.318 2.961-2.561 4.585-3.694l0.139-0.092c2.178-1.505 4.424-2.744 6.707-3.661l-8.106 13.54c-0.148 0.243-0.235 0.536-0.235 0.85 0 0.578 0.297 1.087 0.746 1.382l0.006 0.004c5.164 3.359 10.597 5.35 16.131 5.35 3.183 0 6.367-0.669 9.518-1.903 2.638-1.033 5.185-2.437 7.615-4.116 1.899-1.321 3.56-2.662 5.121-4.11l-0.029 0.027c0.489-0.453 0.943-0.894 1.386-1.346l0.007-0.007c0.142-0.146 0.269-0.278 0.375-0.391 0.066-0.071 0.112-0.121 0.139-0.152 0.262-0.291 0.422-0.679 0.422-1.103s-0.16-0.812-0.423-1.105l0.001 0.002-0.013-0.014-0.014-0.016c-0.041-0.047-0.078-0.088-0.115-0.128l0.003 0.003c-0.082-0.089-0.177-0.186-0.283-0.294l-0.091-0.094c-0.45-0.461-0.904-0.903-1.368-1.334l-0.024-0.022c-1.531-1.421-3.192-2.762-4.943-3.985l-0.149-0.099c-3.499-2.417-7.184-4.228-10.991-5.208l-2.484-4.151c-0.804-1.341-2.192-2.010-3.579-2.010zM24.205 3.308c0.29 0 0.581 0.134 0.743 0.404l12.27 20.489c-4.268 2.556-8.69 4.048-13.091 4.048-4.346 0-8.721-1.462-12.971-3.983l12.309-20.557c0.161-0.269 0.45-0.401 0.74-0.401zM32.879 10.519c2.212 0.908 4.388 2.114 6.5 3.573 1.762 1.225 3.303 2.468 4.751 3.811l-0.027-0.025c0.147 0.136 0.268 0.257 0.39 0.378l0.201 0.198c-0.070 0.068-0.135 0.133-0.201 0.198l-0.001 0.001c-0.122 0.121-0.243 0.241-0.39 0.377-1.243 1.15-2.586 2.25-3.993 3.267l-0.126 0.087-7.105-11.863z"></path>
</symbol>
<symbol id="icon-menu" viewBox="0 0 28 32">
<path d="M0 6c0-1.106 0.894-2 2-2h24c1.106 0 2 0.894 2 2s-0.894 2-2 2h-24c-1.106 0-2-0.894-2-2zM0 16c0-1.106 0.894-2 2-2h24c1.106 0 2 0.894 2 2s-0.894 2-2 2h-24c-1.106 0-2-0.894-2-2zM28 26c0 1.106-0.894 2-2 2h-24c-1.106 0-2-0.894-2-2s0.894-2 2-2h24c1.106 0 2 0.894 2 2z"></path>
</symbol>
</defs>
</svg>