<svg aria-hidden="true" style="position: absolute; width: 0; height: 0; overflow: hidden;" version="1.1" xmlns="http://www.w3.org/2000/svg" xmlns:xlink="http://www.w3.org/1999/xlink">
<defs>
<symbol id="icon-logo" viewBox="0 0 49 32">
<path d="M24.206 19.418c1.234 0 1.889-0.515 1.933-1.39l0.223-7.125c0.015-0.103 0.015-0.227 0.015-0.309 0-0.947-0.833-1.513-2.156-1.513-1.338 0-2.186 0.567-2.186 1.513 0 0.039 0.003 0.087 0.007 0.137 0.004 0.057 0.008 0.117 0.008 0.172l0.238 7.125c0.029 0.875 0.684 1.39 1.918 1.39zM26.791 22.874c0 1.395-1.142 2.49-2.585 2.49s-2.585-1.094-2.585-2.49 1.142-2.489 2.585-2.489c1.443 0 2.585 1.094 2.585 2.489z"></path>
<path d="M24.205 0c-1.388 0-2.772 0.669-3.577 2.009l-2.462 4.113c-3.869 0.969-7.615 2.793-11.169 5.247-1.899 1.321-3.56 2.662-5.12 4.11l0.029-0.027c-0.489 0.453-0.943 0.896-1.385 1.349l-0.1 0.103c-0.105 0.107-0.199 0.204-0.282 0.292-0.039 0.042-0.071 0.078-0.097 0.107l-0.043 0.048 2.465 2.206 0.009-0.011 0.001-0.001c0.145-0.158 0.278-0.299 0.412-0.437l-0.006 0.006c0.362-0.371 0.787-0.787 1.273-1.238 1.42-1.318 2.961-2.561 4.585-3.694l0.139-0.092c2.178-1.505 4.424-2.744 6.707-3.661l-8.106 13.54c-0.148 0.243-0.235 0.536-0.235 0.85 0 0.578 0.297 1.087 0.746 1.382l0.006 0.004c5.164 3.359 10.597 5.35 16.131 5.35 3.183 0 6.367-0.669 9.518-1.903 2.638-1.033 5.185-2.437 7.615-4.116 1.899-1.321 3.56-2.662 5.121-4.11l-0.029 0.027c0.489-0.453 0.943-0.894 1.386-1.346l0.007-0.007c0.142-0.146 0.269-0.278 0.375-0.391 0.066-0.071 0.112-0.121 0.139-0.152 0.262-0.291 0.422-0.679 0.422-1.103s-0.16-0.812-0.423-1.105l0.001 0.002-0.013-0.014-0.014-0.016c-0.041-0.047-0.078-0.088-0.115-0.128l0.003 0.003c-0.082-0.089-0.177-0.186-0.283-0.294l-0.091-0.094c-0.45-0.461-0.904-0.903-1.368-1.334l-0.024-0.022c-1.531-1.421-3.192-2.762-4.943-3.985l-0.149-0.099c-3.499-2.417-7.184-4.228-10.991-5.208l-2.484-4.151c-0.804-1.341-2.192-2.010-3.579-2.010zM24.205 3.308c0.29 0 0.581 0.134 0.743 0.404l12.27 20.489c-4.268 2.556-8.69 4.048-13.091 4.048-4.346 0-8.721-1.462-12.971-3.983l12.309-20.557c0.161-0.269 0.45-0.401 0.74-0.401zM32.879 10.519c2.212 0.908 4.388 2.114 6.5 3.573 1.762 1.225 3.303 2.468 4.751 3.811l-0.027-0.025c0.147 0.136 0.268 0.257 0.39 0.378l0.201 0.198c-0.070 0.068-0.135 0.133-0.201 0.198l-0.001 0.001c-0.122 0.121-0.243 0.241-0.39 0.377-1.243 1.15-2.586 2.25-3.993 3.267l-0.126 0.087-7.105-11.863z"></path>
</symbol>
<symbol id="icon-menu" viewBox="0 0 28 32">
<path d="M0 6c0-1.106 0.894-2 2-2h24c1.106 0 2 0.894 2 2s-0.894 2-2 2h-24c-1.106 0-2-0.894-2-2zM0 16c0-1.106 0.894-2 2-2h24c1.106 0 2 0.894 2 2s-0.894 2-2 2h-24c-1.106 0-2-0.894-2-2zM28 26c0 1.106-0.894 2-2 2h-24c-1.106 0-2-0.894-2-2s0.894-2 2-2h24c1.106 0 2 0.894 2 2z"></path>
</symbol>
<symbol id="icon-loop" viewBox="0 0 44 32">
<path fill="#d53f2b" style="fill: var(--color1, #d53f2b)" d="M22.154 0c-16.117 0-22.154 15.963-22.154 15.963s6.037 15.963 22.154 15.963c16.117 0 22.154-15.963 22.154-15.963s-6.037-15.963-22.154-15.963zM22.154 27.94c-10.634 0-16.006-8.503-17.742-11.959 1.735-3.419 7.163-11.977 17.742-11.977 10.634 0 16.006 8.521 17.742 11.959-1.754 3.419-7.163 11.977-17.742 11.977z"></path>
<path fill="#6ba4c2" style="fill: var(--color2, #6ba4c2)" d="M16.394 10.24c-3.194 0-5.778 2.56-5.778 5.705 0 3.163 2.585 5.723 5.778 5.723v-0.018c1.865 0 3.508-0.878 4.578-2.231-0.425-0.603-0.794-1.207-1.145-1.774-0.609 1.262-1.92 2.103-3.434 2.103v-0.018c-2.105 0-3.822-1.701-3.822-3.785s1.717-3.785 3.822-3.785c1.052 0 1.92 0.384 2.732 1.207 0.665 0.658 1.145 1.371 2.178 3.072 1.126 1.847 1.662 2.633 2.492 3.456 1.163 1.152 2.492 1.774 4.117 1.774 3.194 0 5.778-2.56 5.778-5.723s-2.585-5.723-5.778-5.723v0.018c-1.865 0-3.508 0.878-4.578 2.231 0.425 0.603 0.794 1.207 1.145 1.774 0.609-1.262 1.92-2.103 3.434-2.103v0.018c2.105 0 3.822 1.682 3.822 3.785s-1.717 3.785-3.822 3.785c-1.052 0-1.92-0.384-2.732-1.207-0.665-0.658-1.145-1.371-2.197-3.090-1.126-1.847-1.662-2.633-2.492-3.456-1.163-1.115-2.492-1.737-4.098-1.737z"></path>
</symbol>
<symbol id="icon-service" viewBox="0 0 44 32">
<path fill="#d53f2b" style="fill: var(--color1, #d53f2b)" d="M22.154 0c-16.117 0-22.154 15.963-22.154 15.963s6.037 15.963 22.154 15.963c16.117 0 22.154-15.963 22.154-15.963s-6.037-15.963-22.154-15.963zM22.154 27.94c-10.634 0-16.006-8.503-17.742-11.959 1.735-3.419 7.163-11.977 17.742-11.977 10.634 0 16.006 8.521 17.742 11.959-1.735 3.419-7.163 11.977-17.742 11.977z"></path>
<path fill="#6ba4c2" style="fill: var(--color2, #6ba4c2)" d="M19.218 8.905c-1.68 0-4.615 2.505-5.465 2.505-0.831 0-0.831 0-0.831 0v6.638h0.498c0.055-0.146 0.111-0.274 0.222-0.421 0.055-0.073 0.092-0.128 0.092-0.128l2.769-2.743 2.105-2.048c0.314-0.311 0.738-0.475 1.182-0.475h1.551c0.111 0 0.185 0.055 0.222 0.128 0.055 0.073 1.182 1.865 1.182 1.865 0.185 0.293 0.517 0.512 0.886 0.512 0.572 0 1.052-0.457 1.052-1.042 0-0.165-0.037-0.329-0.111-0.475l-1.182-2.341c-0.314-0.53-0.738-0.969-1.292-1.262-0.886-0.494-2.049-0.713-2.88-0.713z"></path>
<path fill="#6ba4c2" style="fill: var(--color2, #6ba4c2)" d="M23.114 9.307c0.388 0.311 0.72 0.713 0.978 1.152l0.018 0.037c0.628 1.262 1.163 2.341 1.163 2.341 0.185 0.347 0.24 0.713 0.203 1.097-0.111 0.805-0.738 1.463-1.551 1.591-0.794 0.128-1.532-0.219-1.938-0.878l-0.978-1.554c-0.018-0.018-0.055-0.018-0.074-0.037h-1.182c-0.222 0-0.425 0.091-0.591 0.238l-2.086 2.048-2.732 2.706c0 0-0.018 0.018-0.037 0.055s-0.055 0.091-0.092 0.183l-0.018 0.037c-0.018 0.037-0.018 0.091-0.018 0.128 0 0.219 0.092 0.439 0.258 0.585s0.369 0.238 0.572 0.238c0.258 0 0.425-0.165 0.425-0.165l2.215-2.194c0.166-0.165 0.425-0.165 0.591 0s0.166 0.421 0 0.585l-2.64 2.615c0 0-0.166 0.165-0.166 0.421 0 0.219 0.092 0.439 0.258 0.603 0.166 0.146 0.369 0.219 0.572 0.219 0.258 0 0.406-0.165 0.406-0.165l2.215-2.194c0.166-0.165 0.425-0.165 0.591 0s0.166 0.421 0 0.585l-1.809 1.792c0 0-0.166 0.165-0.166 0.421 0 0.219 0.074 0.439 0.258 0.603 0.166 0.146 0.369 0.219 0.572 0.219 0.258 0 0.425-0.165 0.425-0.165l1.385-1.371c0.166-0.165 0.425-0.165 0.591 0s0.166 0.421 0 0.585l-0.129 0.128c0 0-0.166 0.165-0.166 0.421 0 0.219 0.074 0.439 0.258 0.603 0.166 0.146 0.369 0.219 0.572 0.219 0.258 0 0.425-0.165 0.425-0.165l0.148-0.128-0.203-0.366c-0.055-0.11-0.148-0.347-0.148-0.658 0-0.146 0.018-0.293 0.074-0.439 0.129-0.402 0.425-0.75 0.794-0.951 0.258-0.128 0.535-0.183 0.812-0.183-0.055-0.146-0.092-0.329-0.092-0.512 0-0.146 0.018-0.293 0.074-0.439 0.129-0.402 0.425-0.75 0.794-0.951s0.775-0.238 1.182-0.146c0.018-0.055 0.018-0.11 0.037-0.146 0.129-0.402 0.425-0.75 0.794-0.951 0.406-0.219 0.886-0.256 1.311-0.11 0.203 0.073 0.388 0.183 0.517 0.311 0.148-0.256 0.369-0.457 0.646-0.603 0.406-0.219 0.868-0.256 1.311-0.11 0.129 0.037 0.24 0.091 0.295 0.128l0.018 0.018 0.074 0.037c0.129 0.091 0.24 0.201 0.332 0.311v0.018l0.018 0.018c0.055 0.073 0.074 0.128 0.074 0.128l0.037 0.037 0.462 0.878h0.314v-7.479h-2.511c-0.24 0-0.702-0.183-1.163-0.384-0.886-0.366-2.068-0.859-3.452-0.859l-1.126-0.037z"></path>
<path fill="#6ba4c2" style="fill: var(--color2, #6ba4c2)" d="M29.188 17.206c-0.111 0-0.222 0.037-0.332 0.091-0.203 0.11-0.332 0.274-0.406 0.475-0.074 0.256 0.037 0.439 0.037 0.439l0.609 1.189c0 0 0.092 0.219 0.351 0.293 0.203 0.073 0.443 0.055 0.646-0.055s0.332-0.274 0.406-0.475c0.074-0.256-0.037-0.457-0.037-0.457l-0.609-1.17c0 0-0.018-0.037-0.037-0.073s-0.074-0.091-0.148-0.146l-0.037-0.018c-0.037-0.018-0.074-0.055-0.111-0.055-0.092-0.018-0.222-0.037-0.332-0.037z"></path>
<path fill="#6ba4c2" style="fill: var(--color2, #6ba4c2)" d="M26.732 17.627c-0.111 0-0.222 0.037-0.332 0.091-0.203 0.11-0.332 0.274-0.406 0.475-0.074 0.256 0.037 0.439 0.037 0.439l1.422 2.706c0 0 0.092 0.201 0.351 0.293 0.203 0.073 0.443 0.055 0.665-0.055 0.203-0.11 0.332-0.274 0.406-0.475 0.074-0.256-0.037-0.439-0.037-0.439l-1.422-2.706c0 0-0.092-0.201-0.351-0.293-0.111-0.018-0.222-0.037-0.332-0.037z"></path>
<path fill="#6ba4c2" style="fill: var(--color2, #6ba4c2)" d="M24.701 18.87c-0.111 0-0.222 0.037-0.332 0.091-0.203 0.11-0.332 0.274-0.406 0.475-0.074 0.256 0.037 0.439 0.037 0.439l1.237 2.395c0 0 0.092 0.219 0.351 0.293 0.203 0.073 0.443 0.055 0.646-0.055s0.332-0.274 0.406-0.475c0.074-0.256-0.037-0.457-0.037-0.457l-1.237-2.395c0 0-0.092-0.201-0.351-0.293-0.092 0-0.203-0.018-0.314-0.018z"></path>
<path fill="#6ba4c2" style="fill: var(--color2, #6ba4c2)" d="M23.114 20.955c-0.111 0-0.222 0.037-0.332 0.091-0.203 0.11-0.332 0.274-0.406 0.475-0.074 0.256 0.037 0.457 0.037 0.457l0.388 0.731c0 0 0.018 0.018 0.037 0.055s0.074 0.091 0.148 0.146l0.037 0.037c0.037 0.018 0.074 0.037 0.129 0.055 0.203 0.073 0.443 0.055 0.646-0.055s0.332-0.274 0.406-0.475c0.074-0.256-0.037-0.439-0.037-0.439l-0.388-0.731c0 0-0.092-0.201-0.351-0.293-0.092-0.055-0.203-0.055-0.314-0.055z"></path>
</symbol>
<symbol id="icon-waste" viewBox="0 0 44 32">
<path fill="#d53f2b" style="fill: var(--color1, #d53f2b)" d="M22.154 0c-16.117 0-22.154 15.963-22.154 15.963s6.037 15.963 22.154 15.963c16.117 0 22.154-15.963 22.154-15.963s-6.055-15.963-22.154-15.963zM22.154 27.94c-10.634 0-16.006-8.503-17.742-11.959 1.735-3.419 7.163-11.977 17.742-11.977 10.634 0 15.988 8.521 17.742 11.959-1.754 3.419-7.163 11.977-17.742 11.977z"></path>
<path fill="#6ba4c2" style="fill: var(--color2, #6ba4c2)" d="M19.292 7.735l-0.757 0.75h-3.785v1.499h0.775v11.227c0 0.823 0.665 1.481 1.495 1.481h6.055v-1.463h-6.055c-0.018 0-0.018 0-0.018-0.018v-11.227h7.606v7.479h1.477v-7.479h0.775v-1.499h-3.785l-0.757-0.75h-3.028z"></path>
<path fill="#6ba4c2" style="fill: var(--color2, #6ba4c2)" d="M18.535 11.483h1.514v8.228h-1.514v-8.228z"></path>
<path fill="#6ba4c2" style="fill: var(--color2, #6ba4c2)" d="M21.563 11.483h1.514v8.228h-1.514v-8.228z"></path>
<path fill="#6ba4c2" style="fill: var(--color2, #6ba4c2)" d="M25.255 18.907l-1.071 1.061 1.606 1.591-1.606 1.591 1.071 1.061 1.606-1.591 1.606 1.591 1.071-1.061-1.606-1.591 1.606-1.591-1.071-1.061-1.606 1.591-1.606-1.591z"></path>
</symbol>
</defs>
</svg>